PathFileType	4	(X/Y/Z)	 2.8Hzhigh3min.trc
DataRate	CameraRate	NumFrames	NumMarkers	Units	OrigDataRate	OrigDataStartFrame	OrigNumFrames
200	200	9	43	m	200	876	1000
Frame#	Time	C7			LSH			RSH			MAN			RASI			LASI			HIPR			HIPL			RPSI			LPSI			COX			RTHI1			RTHI2			RTHI3			RTHI4			RLKN			RMKN			RSHA1			RSHA2			RSHA3			RSHA4			RLMAL			RMMAL			RHEEL			RMET5			RMET1			RTOE			LTHI1			LTHI2			LTHI3			LTHI4			LLKN			LMKN			LSHA1			LSHA2			LSHA3			LSHA4			LLMAL			LMMAL			LHEEL			LMET5			LMET1			LTOE			
		X1	Y1	Z1	X2	Y2	Z2	X3	Y3	Z3	X4	Y4	Z4	X5	Y5	Z5	X6	Y6	Z6	X7	Y7	Z7	X8	Y8	Z8	X9	Y9	Z9	X10	Y10	Z10	X11	Y11	Z11	X12	Y12	Z12	X13	Y13	Z13	X14	Y14	Z14	X15	Y15	Z15	X16	Y16	Z16	X17	Y17	Z17	X18	Y18	Z18	X19	Y19	Z19	X20	Y20	Z20	X21	Y21	Z21	X22	Y22	Z22	X23	Y23	Z23	X24	Y24	Z24	X25	Y25	Z25	X26	Y26	Z26	X27	Y27	Z27	X28	Y28	Z28	X29	Y29	Z29	X30	Y30	Z30	X31	Y31	Z31	X32	Y32	Z32	X33	Y33	Z33	X34	Y34	Z34	X35	Y35	Z35	X36	Y36	Z36	X37	Y37	Z37	X38	Y38	Z38	X39	Y39	Z39	X40	Y40	Z40	X41	Y41	Z41	X42	Y42	Z42	X43	Y43	Z43	
876	4.3800	-0.328509	1.450405	-0.512643	-0.259251	1.448409	-0.673453	-0.231517	1.439268	-0.382124	-0.205311	1.390106	-0.528472	-0.162597	0.958946	-0.414872	-0.198364	0.966411	-0.655357	-0.203489	1.023081	-0.388411	-0.245018	1.035977	-0.670601	-0.331759	1.012979	-0.480621	-0.343693	1.011411	-0.545940	-0.342662	1.008317	-0.513340	-0.265180	0.781990	-0.352173	-0.255453	0.722826	-0.352228	-0.191298	0.729268	-0.354759	-0.192388	0.790949	-0.354926	-0.262406	0.531401	-0.376398	-0.257041	0.517021	-0.501389	-0.340829	0.371548	-0.380156	-0.337950	0.330890	-0.387259	-0.288120	0.325159	-0.365241	-0.282608	0.368609	-0.360425	-0.310050	0.179888	-0.392825	-0.286539	0.182974	-0.466389	-0.358331	0.181955	-0.429320	-0.241877	0.068938	-0.380311	-0.211098	0.072321	-0.445206	-0.190636	0.060069	-0.442840	-0.311988	0.801989	-0.695791	-0.300939	0.741427	-0.699976	-0.236883	0.748000	-0.711262	-0.240961	0.807987	-0.709438	-0.287107	0.517849	-0.685013	-0.274334	0.517926	-0.565846	-0.368057	0.338797	-0.674952	-0.369626	0.299270	-0.664281	-0.312650	0.295663	-0.688253	-0.318064	0.339050	-0.695325	-0.343813	0.186292	-0.670536	-0.324501	0.184344	-0.596678	-0.389589	0.195382	-0.619844	-0.290620	0.075624	-0.681028	-0.258451	0.071727	-0.617348	-0.242329	0.056844	-0.620339	
877	4.3850	-0.328322	1.452866	-0.512441	-0.259036	1.451288	-0.672997	-0.231358	1.441926	-0.382315	-0.205083	1.392801	-0.528349	-0.163447	0.962032	-0.414587	-0.198725	0.969468	-0.654802	-0.204336	1.026488	-0.388477	-0.245288	1.039135	-0.670311	-0.332403	1.016601	-0.480940	-0.344241	1.015053	-0.546300	-0.343272	1.011961	-0.513660	-0.265737	0.784295	-0.352370	-0.255648	0.725196	-0.352304	-0.191517	0.732025	-0.354351	-0.192982	0.793690	-0.354569	-0.261184	0.533254	-0.376726	-0.255234	0.518802	-0.501163	-0.340163	0.373644	-0.380650	-0.337494	0.333002	-0.387990	-0.287671	0.327012	-0.365716	-0.281949	0.370399	-0.360814	-0.309749	0.182112	-0.393293	-0.286324	0.185128	-0.466895	-0.358022	0.183936	-0.429795	-0.240519	0.072014	-0.380910	-0.209765	0.075675	-0.445643	-0.189173	0.063542	-0.443254	-0.311875	0.805128	-0.695836	-0.300872	0.744561	-0.699931	-0.236793	0.751062	-0.711124	-0.240815	0.811055	-0.709388	-0.285900	0.520194	-0.684643	-0.274202	0.520556	-0.565258	-0.367387	0.341374	-0.674221	-0.369050	0.301906	-0.663366	-0.312070	0.298030	-0.687309	-0.317390	0.341412	-0.694571	-0.343036	0.188709	-0.669299	-0.323613	0.187063	-0.595415	-0.388816	0.197665	-0.618581	-0.288895	0.078427	-0.679178	-0.256653	0.075186	-0.615564	-0.240374	0.060426	-0.618478	
878	4.3900	-0.328116	1.455147	-0.512249	-0.258851	1.453825	-0.672713	-0.231242	1.444275	-0.382287	-0.204805	1.395258	-0.528230	-0.164329	0.964856	-0.414247	-0.199159	0.972315	-0.654242	-0.205311	1.029513	-0.388461	-0.245734	1.041957	-0.670007	-0.333129	1.019769	-0.481187	-0.344891	1.018236	-0.546573	-0.343972	1.015143	-0.513902	-0.266242	0.786212	-0.352536	-0.255710	0.727198	-0.352399	-0.191621	0.734504	-0.354014	-0.193546	0.796153	-0.354247	-0.259817	0.534939	-0.376971	-0.253301	0.520417	-0.500961	-0.339426	0.375638	-0.380955	-0.336965	0.335009	-0.388436	-0.287068	0.328744	-0.366158	-0.281238	0.372133	-0.361085	-0.309505	0.184219	-0.393648	-0.286291	0.187149	-0.467353	-0.357891	0.185847	-0.430100	-0.239405	0.074921	-0.381430	-0.208781	0.078815	-0.446126	-0.188066	0.066791	-0.443735	-0.311822	0.807897	-0.695870	-0.300762	0.747355	-0.699906	-0.236676	0.753894	-0.711007	-0.240735	0.813888	-0.709346	-0.284452	0.522369	-0.684309	-0.273514	0.522934	-0.564766	-0.366678	0.343881	-0.673541	-0.368505	0.304488	-0.662504	-0.311517	0.300247	-0.686411	-0.316665	0.343608	-0.693866	-0.342390	0.190982	-0.668119	-0.322901	0.189672	-0.594175	-0.388238	0.199843	-0.617424	-0.287349	0.081120	-0.677323	-0.255073	0.078544	-0.613694	-0.238632	0.063884	-0.616460	
879	4.3950	-0.327899	1.457269	-0.512058	-0.258658	1.456026	-0.672594	-0.231170	1.446331	-0.382021	-0.204465	1.397504	-0.528091	-0.165226	0.967403	-0.413861	-0.199658	0.974936	-0.653694	-0.206375	1.032141	-0.388359	-0.246336	1.044472	-0.669695	-0.333919	1.022479	-0.481365	-0.345625	1.020946	-0.546749	-0.344740	1.017853	-0.514058	-0.266669	0.787788	-0.352679	-0.255634	0.728878	-0.352504	-0.191601	0.736720	-0.353754	-0.194047	0.798356	-0.353977	-0.258353	0.536502	-0.377123	-0.251310	0.521907	-0.500806	-0.338609	0.377557	-0.381048	-0.336382	0.336933	-0.388617	-0.286356	0.330408	-0.366531	-0.280472	0.373808	-0.361252	-0.309362	0.186184	-0.393940	-0.286430	0.189066	-0.467763	-0.357930	0.187679	-0.430242	-0.238474	0.077752	-0.381973	-0.208104	0.081731	-0.446650	-0.187297	0.069878	-0.444294	-0.311810	0.810318	-0.695912	-0.300592	0.749809	-0.699899	-0.236515	0.756496	-0.710899	-0.240706	0.816484	-0.709299	-0.282833	0.524383	-0.684005	-0.272289	0.525086	-0.564384	-0.365914	0.346309	-0.672927	-0.367965	0.306996	-0.661714	-0.310958	0.302303	-0.685540	-0.315862	0.345657	-0.693210	-0.341864	0.193114	-0.667015	-0.322357	0.192158	-0.592978	-0.387846	0.201920	-0.616373	-0.285981	0.083688	-0.675519	-0.253730	0.081746	-0.611889	-0.237125	0.067168	-0.614455	
880	4.4000	-0.327678	1.459241	-0.511863	-0.258493	1.457913	-0.672624	-0.231133	1.448104	-0.381546	-0.204259	1.399577	-0.527958	-0.166118	0.969674	-0.413449	-0.200208	0.977329	-0.653169	-0.207501	1.034371	-0.388170	-0.247070	1.046693	-0.669381	-0.334749	1.024721	-0.481474	-0.346427	1.023179	-0.546829	-0.345555	1.020082	-0.514136	-0.266996	0.789082	-0.352809	-0.255417	0.730288	-0.352615	-0.191456	0.738702	-0.353571	-0.194461	0.800327	-0.353773	-0.256809	0.537971	-0.377184	-0.249340	0.523298	-0.500707	-0.337721	0.379406	-0.380932	-0.335720	0.338765	-0.388553	-0.285556	0.332012	-0.366823	-0.279566	0.375408	-0.361375	-0.309287	0.188031	-0.394140	-0.286731	0.190897	-0.468122	-0.358140	0.189409	-0.430243	-0.237687	0.080439	-0.382456	-0.207676	0.084488	-0.447199	-0.186787	0.072813	-0.444895	-0.311824	0.812389	-0.695967	-0.300349	0.751927	-0.699914	-0.236290	0.758875	-0.710787	-0.240708	0.818841	-0.709238	-0.281114	0.526236	-0.683722	-0.270584	0.527027	-0.564120	-0.365101	0.348642	-0.672397	-0.367417	0.309415	-0.661023	-0.310370	0.304246	-0.684718	-0.314961	0.347584	-0.692584	-0.341444	0.195106	-0.665993	-0.321958	0.194501	-0.591844	-0.387623	0.203880	-0.615427	-0.284794	0.086101	-0.673808	-0.252603	0.084780	-0.610148	-0.235865	0.070274	-0.612573	
881	4.4050	-0.327461	1.461060	-0.511668	-0.258351	1.459495	-0.672777	-0.231107	1.449598	-0.380897	-0.204095	1.401449	-0.527817	-0.166994	0.971670	-0.413033	-0.200818	0.979477	-0.652701	-0.208652	1.036214	-0.387904	-0.247912	1.048650	-0.669064	-0.335599	1.026507	-0.481518	-0.347273	1.024939	-0.546821	-0.346394	1.021837	-0.514139	-0.267204	0.790140	-0.352937	-0.255073	0.731470	-0.352731	-0.191191	0.740474	-0.353464	-0.194769	0.802077	-0.353645	-0.255199	0.539360	-0.377177	-0.247450	0.524614	-0.500673	-0.336782	0.381199	-0.380630	-0.335012	0.340557	-0.388291	-0.284678	0.333544	-0.367038	-0.278539	0.376923	-0.361467	-0.309246	0.189768	-0.394243	-0.287192	0.192645	-0.468431	-0.358519	0.191024	-0.430126	-0.237065	0.082998	-0.382931	-0.207492	0.087100	-0.447759	-0.186474	0.075609	-0.445523	-0.311847	0.814120	-0.696037	-0.300023	0.753716	-0.699956	-0.235988	0.761029	-0.710666	-0.240728	0.820967	-0.709137	-0.279356	0.527928	-0.683467	-0.268495	0.528788	-0.563983	-0.364253	0.350872	-0.671950	-0.366865	0.311719	-0.660446	-0.309770	0.306075	-0.683959	-0.313988	0.349402	-0.691993	-0.341115	0.196957	-0.665059	-0.321684	0.196673	-0.590782	-0.387539	0.205704	-0.614580	-0.283781	0.088351	-0.672222	-0.251668	0.087599	-0.608480	-0.234782	0.073177	-0.610793	
882	4.4100	-0.327258	1.462704	-0.511475	-0.258200	1.460777	-0.673029	-0.231065	1.450818	-0.380099	-0.203973	1.403101	-0.527674	-0.167838	0.973395	-0.412629	-0.201468	0.981372	-0.652306	-0.209808	1.037693	-0.387575	-0.248846	1.050350	-0.668750	-0.336453	1.027859	-0.481506	-0.348139	1.026247	-0.546730	-0.347236	1.023144	-0.514077	-0.267290	0.791005	-0.353065	-0.254614	0.732465	-0.352850	-0.190818	0.742046	-0.353427	-0.194965	0.803626	-0.353592	-0.253517	0.540655	-0.377114	-0.245686	0.525867	-0.500702	-0.335837	0.382957	-0.380157	-0.334311	0.342347	-0.387888	-0.283790	0.335005	-0.367190	-0.277480	0.378362	-0.361501	-0.309321	0.191369	-0.394311	-0.287800	0.194302	-0.468682	-0.359035	0.192502	-0.429928	-0.236592	0.085431	-0.383310	-0.207493	0.089562	-0.448290	-0.186357	0.078253	-0.446164	-0.311861	0.815509	-0.696115	-0.299608	0.755181	-0.700019	-0.235599	0.762951	-0.710529	-0.240744	0.822850	-0.708991	-0.277616	0.529439	-0.683239	-0.266138	0.530391	-0.563966	-0.363400	0.352981	-0.671585	-0.366315	0.313875	-0.659972	-0.309167	0.307791	-0.683254	-0.312990	0.351111	-0.691437	-0.340859	0.198664	-0.664216	-0.321532	0.198664	-0.589800	-0.387578	0.207369	-0.613820	-0.282931	0.090471	-0.670806	-0.250914	0.090213	-0.607011	-0.233888	0.075850	-0.609213	
883	4.4150	-0.327069	1.464145	-0.511289	-0.258013	1.461774	-0.673355	-0.230979	1.451764	-0.379201	-0.203907	1.404519	-0.527528	-0.168649	0.974869	-0.412250	-0.202146	0.983012	-0.651990	-0.210951	1.038837	-0.387206	-0.249860	1.051793	-0.668445	-0.337295	1.028798	-0.481450	-0.349013	1.027134	-0.546576	-0.348070	1.024044	-0.513960	-0.267255	0.791709	-0.353192	-0.254056	0.733296	-0.352969	-0.190347	0.743434	-0.353454	-0.195043	0.804983	-0.353609	-0.251748	0.541844	-0.377035	-0.244075	0.527066	-0.500780	-0.334875	0.384663	-0.379536	-0.333659	0.344121	-0.387370	-0.282941	0.336381	-0.367277	-0.276395	0.379670	-0.361525	-0.309497	0.192844	-0.394331	-0.288534	0.195846	-0.468875	-0.359661	0.193827	-0.429655	-0.236255	0.087699	-0.383691	-0.207632	0.091878	-0.448774	-0.186376	0.080764	-0.446763	-0.311843	0.816571	-0.696202	-0.299096	0.756333	-0.700100	-0.235119	0.764634	-0.710377	-0.240735	0.824481	-0.708804	-0.275941	0.530770	-0.683045	-0.263628	0.531843	-0.564057	-0.362572	0.354940	-0.671282	-0.365784	0.315853	-0.659586	-0.308583	0.309386	-0.682626	-0.312008	0.352699	-0.690918	-0.340664	0.200221	-0.663472	-0.321500	0.200456	-0.588910	-0.387722	0.208878	-0.613155	-0.282231	0.092388	-0.669558	-0.250295	0.092581	-0.605693	-0.233141	0.078287	-0.607795	
884	4.4200	-0.326893	1.465361	-0.511118	-0.257877	1.462506	-0.673722	-0.230831	1.452439	-0.378250	-0.203904	1.405682	-0.527389	-0.169418	0.976110	-0.411916	-0.202840	0.984401	-0.651750	-0.212070	1.039677	-0.386815	-0.250927	1.052958	-0.668156	-0.338112	1.029350	-0.481354	-0.349880	1.027639	-0.546376	-0.348881	1.024573	-0.513801	-0.267102	0.792269	-0.353308	-0.253412	0.733977	-0.353088	-0.189790	0.744647	-0.353542	-0.195005	0.806158	-0.353681	-0.249895	0.542899	-0.376968	-0.242627	0.528215	-0.500885	-0.333916	0.386296	-0.378834	-0.333034	0.345836	-0.386770	-0.282153	0.337643	-0.367308	-0.275318	0.380851	-0.361534	-0.309738	0.194208	-0.394280	-0.289374	0.197253	-0.469010	-0.360378	0.194998	-0.429323	-0.236035	0.089750	-0.383949	-0.207922	0.094045	-0.449210	-0.186546	0.083096	-0.447310	-0.311775	0.817304	-0.696291	-0.298487	0.757181	-0.700199	-0.234544	0.766064	-0.710210	-0.240684	0.825856	-0.708590	-0.274359	0.531920	-0.682891	-0.261069	0.533145	-0.564243	-0.361804	0.356720	-0.671019	-0.365292	0.317650	-0.659279	-0.308040	0.310852	-0.682086	-0.311096	0.354150	-0.690441	-0.340521	0.201614	-0.662822	-0.321562	0.202031	-0.588114	-0.387930	0.210196	-0.612566	-0.281692	0.094104	-0.668497	-0.249822	0.094704	-0.604564	-0.232544	0.080455	-0.606602	
